<?xml version="1.0" encoding="UTF-8"?>
<svg id="Layer_1" data-name="Layer 1" xmlns="http://www.w3.org/2000/svg" viewBox="0 0 642.62 886.45">
  <defs>
    <style>
      .cls-1 {
        fill: rgba(255, 255, 255, .4);
        stroke: #fff;
        stroke-miterlimit: 10;
        stroke-width: 3px;
      }
    </style>
  </defs>
  <polygon class="cls-1" points="639.32 595.49 639.05 594.26 640.02 592.32 639.97 591.07 639.56 589.78 639.01 588.74 638.47 588.18 637.87 587.7 637.38 587.17 637.18 586.44 637.54 584.3 637.33 583.14 636.83 582.02 635.71 580.18 635.2 579.05 634.99 578.02 634.99 575.69 634.85 574.56 630.33 562.63 629.38 560.86 629.25 560.29 629.02 559.89 628.04 559.21 627.63 558.54 627.24 558.12 626.87 557.58 626.73 556.92 627.58 555.84 627.81 555.46 627.99 554.54 627.81 551.71 627.48 550.87 626.69 550.45 625.74 550.16 624.94 549.72 624.49 549.02 623.62 546.8 623.25 545.18 622.41 543.19 622.39 542.22 622.99 541.53 624 540.58 624.7 539.51 624.37 538.46 624.07 537.99 624.05 537 623.86 536.48 623.45 536.08 621.67 535.02 619.82 534.42 619.34 534.13 618.34 533.13 617.76 532.72 617.19 532.55 616.73 532.28 616.42 531.65 616.18 530.94 615.93 530.41 615.44 529.99 614.28 529.37 613.78 528.98 613.43 528.44 613.16 527.85 612.79 527.39 612.13 527.2 611.91 527 611.09 525.97 610.9 525.54 610.68 525.2 609.56 524.66 609.08 524.31 608.86 523.91 608.54 522.93 608.32 522.49 607.53 521.79 606.56 521.49 604.2 521.45 603.57 520.96 603.26 519.82 602.97 517.46 602.59 516.52 601.84 515.34 600.89 514.57 599.89 514.82 598.84 515.2 597.53 514.94 595.36 513.89 594.79 513.25 594.34 513.07 593.34 513.57 592.75 513.62 591.59 513.56 590.54 513.84 590.01 514.47 589.6 515.19 588.83 515.8 588.86 512.23 589.74 510.76 591.05 509.55 593.31 507.48 595.56 505.4 597.81 503.33 600.06 501.26 602.31 499.19 604.57 497.11 606.82 495.04 609.07 492.97 610.06 492.06 610.69 491.76 611.84 491.53 612.38 491.35 613.02 490.86 616.21 486.91 617.57 484.72 617.82 482.53 616.07 480.73 614.1 479.96 613.32 479.43 612.6 478.41 609.05 469.22 607.55 467.24 605.58 466.32 604.5 466.39 603.52 466.57 602.56 466.56 601.54 466.05 600.62 464.94 600.25 463.72 599.95 461.13 599.45 459.84 597.35 456.21 597.1 455.09 596.94 451.84 596.48 450.6 596.13 450.41 596.14 450.38 596.29 449.51 595.94 448.54 595.36 447.95 594.91 446.25 593.93 445.21 592.94 444.41 592.49 443.41 592.25 441.77 591.8 440.14 591.51 438.41 591.78 436.44 592.72 434.72 592.85 434.1 592.68 433.41 591.94 432.26 591.78 431.57 591.85 431.15 592.15 430.43 592.13 430 591.92 429.69 591.27 429.46 591.06 429.25 590.62 427.42 590.24 426.73 589.26 426.03 589.26 426.39 588.79 426.06 588.35 425.64 587.99 425.15 587.82 424.57 587.91 423.84 588.21 423.49 588.58 423.24 588.87 422.81 588.94 422.3 588.87 420.63 589.2 419.25 589.37 416.33 589.63 415.19 590.16 414.35 590.57 413.51 590.69 411.2 591.06 410.22 590.79 409.73 590.87 409.43 591.04 409.07 591.06 408.43 590.92 408.07 590.44 407.15 590.34 406.8 590.38 405.58 590.74 403.56 591.42 401.52 591.51 400.53 591.41 398.19 591.53 397.92 591.78 397.66 592.02 397.3 592.13 396.75 591.94 396.39 590.99 395.3 590.66 394.79 590.48 394.27 590.37 393.75 590.32 393.21 590.34 392.61 590.48 391.97 590.95 390.74 591.06 390.28 590.99 389.04 590.79 388.12 590.45 387.33 589.98 386.49 589.47 384.48 589.95 382.27 591.25 380.2 593.21 378.58 593.45 378.53 594.04 378.62 594.29 378.58 594.57 378.33 595.08 377.73 595.36 377.5 596.91 376.91 597.36 376.61 598.33 375.56 598.9 375.15 599.53 374.99 599.81 374.71 600.39 372.81 600.71 372.42 601.08 372.08 601.39 371.65 601.53 371.02 601.36 370.76 600.57 370 600.39 369.76 600.3 368.73 599.71 365.64 599.7 363.24 600.12 360.98 600.96 358.9 602.22 357.01 605.36 354.06 605.84 353.23 608.32 350.52 609.08 350.06 610.98 349.26 611.62 348.73 611.83 347.83 611.7 346.62 611.3 345.56 609.95 344.6 608.01 341.57 608 339.55 608.23 338.82 608.8 338.21 609.84 337.43 610.18 337.18 610.12 337.18 608.05 336.99 606.58 335.89 605.18 334.55 603.65 333.59 595.4 331.68 591.73 331.37 590.79 331.1 590.34 331.12 589.71 331.42 588.74 332.43 588.19 332.88 587.6 332.98 586.89 332.96 586.28 333.13 586.03 333.79 585.93 334.33 585.65 334.86 585.24 335.26 584.74 335.42 584.23 335.51 582.41 336.14 580.25 336.47 573.55 335.83 571.24 336.14 565.25 338.28 563.31 338.29 559.86 337.34 558.77 337.22 557.64 337.34 553.77 338.48 550.5 338.65 549.92 338.92 548.54 340.13 547.84 340.44 546.58 340.3 544.39 339.28 543.3 339.05 542.12 338.92 538.76 337.9 537.65 337.72 534.29 337.9 533.16 337.67 531.9 337.23 530.72 336.95 529.79 337.22 527.81 336.34 526.72 336.09 525.45 336.14 524.44 336.58 522.96 337.99 521.83 338.66 518.71 341.67 515.72 343.35 514.54 342.46 512.29 339.9 511.23 339.37 509.82 339.62 507.3 340.79 505.99 341.16 505.94 341.16 505.33 341.16 503.8 339.24 499.82 334.22 495.83 329.2 491.84 324.18 487.85 319.16 483.86 314.14 479.87 309.11 475.88 304.09 471.89 299.06 470.99 297.93 469.27 296.45 467.77 296.08 465.81 296.18 463.91 296.66 460.94 298.32 459.29 298.25 453.83 295.64 453.05 295.37 452.88 295.23 452.56 294.75 452.32 294.6 451.81 294.56 450.61 294.72 450.05 294.71 449.21 294.49 448.67 294.18 446.02 290.82 445.64 290.48 444.8 290.63 443.31 291.1 442.45 291.13 440.67 290.73 440.17 290.55 439.43 289.91 439.08 289.74 437.52 289.77 434.36 290.52 432.07 290.69 430.06 291.36 428.97 291.4 428.56 291.68 428.31 292.19 427.75 292.92 425.51 294.5 422.89 295.48 420.04 295.82 416.33 295.42 415.83 295.73 415.4 296.21 414.73 296.68 413.8 296.97 413.29 296.83 412.88 296.48 412.26 296.19 409.7 296.12 408.99 295.82 408.72 295.29 408.68 294.62 408.57 294.01 408.1 293.65 407.29 293.56 405.11 293.98 404.23 293.91 402.54 293.45 401.71 293.37 400.89 293.54 399.51 294.18 398.88 294.35 397.83 293.48 396.66 293.18 395.71 293.43 395.65 293.51 395.67 293.58 394.63 293.51 394.59 293.47 394.5 293.33 394.37 293.04 394.11 292.83 393.66 292.93 392.94 293.34 392.57 293.46 392.2 293.42 391.58 292.99 391.28 292.56 390.85 292.26 389.07 292.19 388.4 292.29 388.06 292.67 388.27 293.54 386.77 293.16 385.53 293.24 384.28 293.46 382.77 293.48 382.91 294.42 382.58 294.61 382.01 294.49 381.43 294.52 380.77 294.94 380.26 295.37 379.69 295.72 378.87 295.85 377.15 295.71 372.78 294.69 371.21 294.33 371.2 294.32 370.61 294 369.38 292.96 368.68 292.53 367.23 291.89 366.63 291.5 365.72 290.44 362.82 284.86 362.26 283.38 361.87 281.85 361.73 280.28 361.76 279.83 362.26 277.69 362.14 277.41 361.86 277.24 360.04 274.89 358.28 274.4 353.97 274.46 351.39 273.99 350.07 273.54 349.08 273.21 347.15 271.82 345.71 269.49 345.54 268.25 345.86 267.16 346.31 266.1 346.52 264.94 346.34 263.93 345.62 261.87 345.47 260.8 345.95 255.27 347.01 252.05 347.13 251.13 346.99 248.84 346.77 247.92 346.4 247.34 345.3 246.07 345.06 245.6 345.24 244.99 345.71 244.65 346.31 244.43 346.87 244.16 347.65 243.51 348.27 242.81 348.7 241.98 348.95 240.95 349.48 240 350.47 239.87 351.58 240.05 352.48 240.06 353.33 238.85 353.23 236.82 352.1 233.22 350.35 229.94 350.07 228.76 350.13 227.91 350.6 226.18 350.7 225.32 350.55 224.43 350.19 223.55 349.68 222.75 349.06 222.12 349.03 222.11 348.54 221.84 348.04 221.71 347.51 221.5 346.89 220.98 345.65 219.64 344.62 218.53 343.58 217.41 342.55 216.3 341.52 215.19 340.49 214.07 339.45 212.95 338.42 211.84 337.38 210.72 336.42 209.68 335.37 207.9 334.81 205.78 334.21 203.47 333.6 201.16 333 198.85 332.39 196.55 331.79 194.24 331.18 191.93 330.57 189.62 329.97 187.31 329.71 186.31 328.82 185.28 329.57 184.06 329.29 183.45 328.41 182.93 327.41 181.98 327.02 182.41 326.63 182.4 326.17 182.25 325.57 182.23 324.92 182.42 324.51 182.64 322.71 183.82 321.64 184.23 320.65 183.98 319.71 182.68 319.42 181.54 319.56 179.31 319.35 178.02 319.2 177.79 318.71 177.29 318.53 177.03 318.54 176.83 318.75 176.36 318.77 176.16 318.11 174.24 317.79 173.85 316.58 173.89 314.3 176.02 313.11 176.7 311.76 177.07 310.84 177.68 309.03 179.38 307.14 180.3 304.95 180.61 299.17 180.75 298.43 180.77 297.73 180.34 297.74 179.19 298.36 178.16 300.3 176.82 301.24 175.94 301.9 174.86 303.71 170.33 307.92 164.14 308.91 161.79 309.69 161.09 311.8 159.77 312.64 158.88 313.19 157.91 314.52 154.32 317.41 149.84 319.06 146.47 319.48 145.09 319.27 144.11 318.8 143.14 318.46 141.77 318.5 140.68 318.94 138.6 318.95 136.54 321.68 127.21 322.74 115.57 322.7 114.53 322.76 113.77 322.77 113.52 323.16 112.48 323.98 111.39 324.85 110.51 325.59 109.53 326.55 106.74 329.79 102.98 331.22 100.66 333.75 93.41 334.97 91.05 336.35 89.47 338.65 87.87 339.62 86.93 340.57 85.63 342.38 81.18 342.81 80.58 343.8 79.51 344.2 78.95 344.35 78.43 344.39 77.41 344.63 76.93 345.57 76.31 346.7 76.13 348.96 76.04 351.88 74.95 352.94 74.73 353.96 74.84 355.92 75.35 356.84 75.12 357.39 74.43 358.96 71.51 360.53 68.59 362.1 65.67 363.67 62.75 365.24 59.83 366.81 56.91 368.37 53.99 369.94 51.07 370.47 50.08 371.38 48.78 372.41 48.09 373.77 47.74 376.85 46.94 379.93 46.14 383.01 45.34 386.09 44.54 389.18 43.73 392.26 42.94 395.34 42.13 398.42 41.33 399.84 40.96 401.93 40.06 403.73 38.53 404.67 38.01 406.26 38.05 406.26 38.05 406.49 37.62 407.51 34.76 407.76 34.3 408.46 34.16 409.35 33.82 410.11 33.41 411.17 32.24 414.81 30.25 416.22 29.2 416.85 28.37 417.5 27.24 417.83 26.04 417.49 25 415.5 22.05 415.15 20.6 411.96 15.17 411.77 14.15 411.53 13.72 411.3 13.42 410.74 12.52 409.71 11.77 407.96 10.88 405.55 10.41 404.48 10.02 403.44 9.24 402.96 9.02 401.07 9.05 400.39 8.86 400.03 8.63 399.31 7.92 397.68 6.85 396.59 6.34 395.52 6.13 391.71 6.13 390.55 5.9 388.97 5.16 387.95 5 386.81 5.22 385.84 5.79 385.06 6.62 384.52 7.59 384.85 7.92 385.31 7.4 386.7 6.18 387.39 5.73 387.18 6.03 387.09 6.33 387 7.19 387.29 6.83 387.71 6.6 388.24 6.49 388.83 6.5 388.31 6.85 387.86 7.33 387.77 7.75 388.31 7.92 388.65 7.8 389.09 7.52 389.64 7.27 390.3 7.19 389.78 7.8 389.1 8.12 388.37 8.35 387.75 8.69 387.56 8.76 387.11 9.01 386.84 9.29 387.2 9.42 387.43 9.58 387.35 9.94 387.14 10.32 387 10.51 386.68 10.51 386.44 9.77 385.94 9.35 385.62 8.87 385.96 7.92 385.47 7.97 384.96 8.11 384.48 8.35 384.13 8.69 383.94 9.15 384.11 9.31 384.38 9.34 384.52 9.42 384.35 10.39 383.98 11 383.34 11.46 382.37 11.98 382.18 12.02 381.44 11.98 381.24 12.09 381.25 12.33 381.31 12.59 381.26 12.74 380.48 12.97 380.2 12.95 379.82 12.74 379.14 11.97 379.3 11.24 380 10.62 380.93 10.15 380.31 9.84 379.88 9.93 379.07 10.51 378.81 10.57 377.86 10.51 377.66 10.66 377.44 11.36 377.31 11.61 375.37 13.28 372.97 14.93 373.36 15.66 373.68 15.66 374.01 15.24 374.54 14.97 375.18 14.87 375.87 14.93 376.53 15.19 376.85 15.54 377.14 15.94 377.67 16.36 377.29 16.89 377.47 17.37 377.85 17.85 378.06 18.4 377.83 18.91 377.26 18.99 376.55 18.91 375.87 18.94 375.39 19.2 374.93 19.67 374.57 20.27 374.44 20.97 374.17 21.15 372.61 21.86 371.69 21.44 370.88 20.09 370.09 19.67 372.28 17.4 372.49 16.41 370.63 15.99 365.23 16.95 363.6 16.36 362.37 17.06 361.92 17.52 361.8 18.22 361.99 18.19 362.45 18.47 362.94 18.9 363.24 19.31 363.46 20.4 363.68 23.41 363.6 24.45 363.24 25.1 362.06 26.65 361.53 28.45 359.65 31.38 358.99 33.3 358.9 33.77 358.68 34.33 357.71 35.29 357.06 36.13 354.26 37.25 351.98 38.91 350.27 39.33 348.93 40.45 348.09 40.93 347.12 41.18 343.98 41.29 342.79 41.7 341.64 42.5 340.52 43.07 339.44 42.75 337.85 43.9 337.03 44.28 333.83 44.97 331.9 45.63 330.94 46.21 321.77 53.7 315.42 57.05 312.41 59.9 310.66 60.7 310.08 61.19 309.34 62.22 308.88 62.66 308.27 62.85 308.01 63.04 307.39 64.3 306.99 64.78 306.73 65 305.37 65.74 303.77 66.96 303.44 67.41 302.92 67.71 297.13 68.6 288.56 68.61 287.14 68.61 281.22 69.08 274.86 68.63 272.79 67.97 271.08 66.98 268.68 66.46 268.28 66.31 267.37 65.47 266.48 64.84 265.47 64.44 264.14 64.3 263.71 64.38 263.39 64.48 263.19 64.68 263.09 65.06 262.7 65.06 262.27 64.63 262.05 64.95 261.81 65.5 261.3 65.75 260.72 65.55 260.32 64.73 259.8 64.3 259.8 65.39 259.47 65.39 259.36 65.2 259.32 65.18 259.26 65.17 259.08 65.06 258.95 65.37 258.4 66.12 258.15 65.63 258.07 65.4 258.04 65.06 257.64 65.06 257.72 66.34 257.35 66.58 256.67 66.42 255.85 66.48 255.16 67.78 255.1 68.34 254.92 68.58 254.68 68.73 254.41 69.03 253.71 70 253.42 70.52 253.3 71.08 253.36 71.22 253.49 71.31 253.63 71.46 253.69 71.77 253.58 72.03 253.07 72.49 252.97 72.7 253.12 73.21 253.59 74.17 253.69 74.7 253.61 75.22 253.31 76.12 253.3 76.7 253.52 77.2 254.25 78.1 254.41 78.73 254.24 79.15 250.96 83.91 250.46 85.1 250.07 87.12 249.9 87.44 249.16 88.3 248.99 88.58 248.9 89.02 248.31 90.18 248.35 91.65 248.31 92.03 246.78 94.81 246.66 95.3 246.43 95.45 245.43 96.42 244.93 96.69 244.56 96.77 242.49 96.89 241.7 96.77 241.22 96.15 240.96 93.59 240.62 92.54 239.96 91.82 238.91 91.64 239.09 92.23 238.81 92.67 238.4 93.15 238.19 93.85 238.29 94.66 238.59 95.16 239.06 95.29 239.65 94.97 239.43 95.88 238.77 96.35 237.91 96.39 237.11 96.03 237.02 94.04 237.11 93.52 236.57 93.5 236.21 93.29 236.03 92.92 236.03 92.36 235.51 92.94 235.27 93.87 234.96 94.71 234.24 94.97 233.91 94.59 233.82 93.81 233.88 92.19 234 91.48 234.31 90.4 234.72 89.5 235.13 89.32 235.88 89.68 237.13 89.68 237.5 90.18 238.1 89.57 238.8 90.05 239.56 90.87 240.37 91.3 239.08 88.8 238.5 87.27 238.71 86.58 239.15 86.35 239.18 85.8 239.11 85.19 239.26 84.73 239.86 84.46 240.42 84.48 241 84.64 241.61 84.73 246.68 84.87 249.28 84.38 250.05 83.82 247.97 84.06 244.49 84.28 240.92 83.91 238.21 83.58 235.61 82.91 231.77 81.6 226.62 79.5 223.81 78.55 222.62 78.15 221.3 77.53 220.99 77.86 221.1 78.15 221.14 78.7 221.17 79.08 221.25 80.06 220.4 80.76 218.61 80.94 217.14 80.93 217.03 81.84 215.75 82.86 215.07 83.64 214.07 84.03 213.1 84.09 212.37 84.41 211.88 84.73 211.66 85.2 211.39 86.41 211.16 86.95 211.23 87.8 210.51 88.62 209.44 89.24 207.44 89.73 204.11 91.94 203.53 92.17 202.95 92.31 202.35 92.36 201.78 92.59 201.09 93.43 200.93 93.62 199.06 94.26 198.63 95.19 198.92 96.18 200 96.79 200.22 96.4 201.04 95.69 201.04 95.95 201.04 96.24 201.09 96.66 201.21 97.05 201.43 97.48 200.3 98.54 200 98.96 199.64 98.96 199.64 98.83 199.64 98.6 199.3 98.25 199.34 98.04 199.53 97.88 199.64 97.68 199.53 97.35 199.28 97.21 198.98 97.12 198.72 96.97 198.41 97.05 198 97.55 197.48 98.4 196.96 98.82 193.5 99.69 192.21 100.29 191.88 100.38 191.89 100.65 191.56 101.21 191.15 101.68 190.95 101.7 190.81 102.34 190.46 102.44 190 102.41 189.55 102.63 189.4 102.73 189 102.89 188.83 102.99 188.79 103.24 189.2 103.77 189.19 104.04 188.72 104.5 188.11 104.85 187.45 105.09 186.84 105.17 186.31 105.39 185.79 105.89 185.53 106.39 185.75 106.62 186.4 106.79 186.59 107.21 186.59 107.79 186.68 108.4 186.61 108.53 186.32 109.21 186.28 109.52 186.8 109.56 187.18 109.65 187.4 109.88 187.54 110.97 187.5 112.3 187.18 113.43 186.48 113.91 185.66 113.52 185.84 112.6 186.4 111.5 186.68 110.61 186.19 110.93 184.69 112.62 184.35 112.92 183.7 113.2 183.38 113.51 183.17 113.93 182.9 114.9 182.7 115.36 183.17 115.26 183.45 115.07 183.62 114.75 183.77 114.24 184.13 114.24 184.49 115.64 184.76 116 185.21 115.72 185.57 115.72 185.68 116.95 185.96 118.38 186 119.57 185.39 120.07 183.49 121.27 182.42 121.52 181.98 120.44 181.69 120.88 181.6 121.34 181.69 121.8 181.98 122.25 180.77 122.2 180.63 122.64 180.85 123.3 180.71 123.9 180.23 124.52 179.94 125.18 179.58 125.69 179.12 126.23 178.4 126.73 176.89 127.59 176.12 129.37 177.1 129.53 179.26 128.31 181.35 126.1 183.52 124.66 185.21 123.73 184.96 124.26 184.91 124.77 184.92 125.31 184.85 125.91 184.67 126.5 184.51 126.81 184.13 127.36 183.58 128.55 183.38 128.84 183.02 129.03 182.61 129.12 182.41 129.29 182.12 129.7 182.16 130.75 182.53 131.62 182.94 132.58 182.82 134.28 182.09 137.31 182.12 138.4 181.9 139.48 181.32 141.26 180.65 142.72 180.32 143.86 180.36 145.08 179.46 148 178.97 149.42 176.04 152.38 176.16 152.91 176.77 152.46 177.46 152.18 178.53 152.14 179.07 152.45 179.79 152.99 180.62 152.98 181.21 154.04 181.58 154.37 182.24 155.14 182.81 156.6 182.77 159.72 181.74 163.08 180.48 165.51 178.48 167.25 177.75 167.78 176.44 167.43 176.4 167.41 175.42 167.14 174.24 166.95 173.04 167.15 172.04 167.65 170.42 168.76 170.37 168.32 170.24 168.13 170.04 167.98 169.74 167.67 169.32 167.96 169 168.05 168.69 167.95 168.27 167.67 168.9 167.12 169.64 166.93 170.42 167.03 171.14 167.34 171.15 166.7 170.87 166.27 170.47 166 170.06 165.86 168.79 166.37 166.97 166.72 165.26 166.82 164.66 166.28 163.48 166.15 163.11 166.89 162.99 168.19 161.74 169.23 160.25 170.1 158.56 170.61 156.43 171.28 155.98 171.49 155.47 171.85 154.9 172.46 154.7 172.96 154.59 173.88 154.61 174.86 154.38 175.41 153.69 175.66 153.46 175.79 151.98 176.35 151.69 176.41 151.33 177.16 150.72 181.56 150.4 182.34 149.91 182.97 148.15 184.53 147.12 185.73 146.59 187.25 147.05 189.09 146.63 189.67 144.68 191.08 144.21 191.73 143.93 192.24 143.49 192.58 142.52 192.7 141.27 193.42 138.08 194.21 137.62 194.63 138.01 195.26 138.01 195.59 137.13 196.36 136.81 196.65 134.09 198.53 131.77 200.87 131.05 201.36 127.49 202.67 126.48 202.84 126.48 203.24 126.84 203.24 126.84 203.56 126.41 203.86 126.19 204.38 126.11 205 126.09 205.57 125.81 206.01 125.12 206.38 120 207.83 118.73 207.93 113.53 209.55 112.86 210.66 111.58 212.18 110.72 213.51 111.34 214.09 111.34 213.7 112.86 213.87 114.78 214.77 116.43 215.89 117.48 217.01 117.81 217.92 118.01 218.86 118.35 219.6 119.09 219.9 119.78 220.31 120.03 221.3 120.02 228.66 120.32 230.38 120.99 232.13 121.2 233.25 120.59 235.03 120.6 236.25 120.8 237.47 121.07 238.31 121.39 238.31 121.25 237.85 121.21 237.56 121.26 237.29 121.39 236.87 122.03 238.12 122.1 239.6 121.79 242.85 121.67 243.35 121.18 243.87 121.07 244.31 121.12 244.81 121.22 245.13 121.24 245.45 121.07 245.91 120.71 246.34 120.16 246.66 119.53 246.88 118.91 246.99 115.64 246.91 112.83 246.02 111.42 244.17 112.39 241.2 112.23 241.15 112.1 241.15 112.04 241.09 112.06 240.87 112.79 239.98 114.02 239.86 115.44 240.25 116.76 240.87 116.41 240.22 115.91 239.83 115.39 239.49 114.96 239.04 115.47 238.97 115.87 239.02 116.17 239.17 116.4 239.42 116.45 239.25 116.44 239.1 116.51 239.01 116.07 238.53 115.76 238.39 115.29 238.31 115.29 237.95 117.12 237.27 117.12 236.87 116.58 237.12 116.4 237.27 116.01 237.27 116 236.65 116.16 236.08 116.44 235.56 116.76 235.1 113.53 235.1 113.42 236.12 112.23 236.3 110.96 235.51 110.62 233.63 110.86 233.73 111.46 233.88 111.7 233.99 111.77 233.19 112.27 232.34 112.06 231.79 111.34 232.55 111.34 231.47 110.52 231.91 109.88 231.56 109.51 230.63 109.51 229.3 109.73 229.46 109.9 229.63 110.23 229.63 110.25 228.77 109.94 228.24 109.51 228.23 109.18 228.91 108.7 228.79 108.47 228.73 107.01 228.71 106.28 228.58 105.16 227.72 100.91 220.75 100.34 220.08 99.57 219.52 96.91 218.45 93.49 216.13 93.04 215.02 92.6 212.98 92.22 211.99 91.79 211.21 91.26 210.55 90.61 209.91 89.98 208.91 89.44 206.96 88.65 206.48 88.53 206.68 88.4 206.81 88.31 206.96 88.29 207.21 88.22 207.94 87.67 208.32 86.82 208.41 85.97 208.59 85.11 209.13 85.06 209.54 85.31 210.07 85.37 211.02 84.74 212.34 83.25 213.91 82.68 214.53 82.24 216.09 82.24 217.3 82.71 217.61 84.29 217.46 85.18 217.76 85.73 218.21 86.6 219.69 87.36 221.53 87.8 225.16 88.25 227.04 88.84 227.95 89.51 228.19 90.21 228.23 90.88 228.52 91.27 229.07 92.41 231.46 93.77 233.46 94.26 234.18 95.79 237.1 96.91 241.21 97.01 242.49 97.36 243.26 97.86 243.74 98.43 244.14 98.94 244.68 99.35 245.51 99.05 245.73 97.1 245.71 95.52 246.04 93.75 246.63 92.14 247.47 91.02 248.58 89.68 251.6 88.13 253.56 87.96 254.2 88.66 255.75 89.74 256.77 90.07 257.75 88.53 259.14 81.15 263.71 78.75 266.11 77.44 267.17 76.24 267.3 75.68 266.69 75.04 264.06 74.65 263.36 73.19 261.39 73.05 261.29 72.6 261.19 72.45 261.05 72.45 260.85 72.67 260.38 72.69 260.24 72.18 259.66 69.55 257.43 69.01 257.13 67.75 257.83 67.42 259.76 67.66 262 68.14 263.63 69.32 265.94 69.48 267.07 69.01 268.43 68.23 269.4 67.22 270 66.06 270.18 64.8 269.91 62.97 275.76 60.83 282.62 61.24 282.74 62.11 283.89 62.72 284.38 63.39 284.57 63.03 284.9 63.78 285.14 64.19 285.78 64.52 286.43 65.04 286.73 65.99 286.85 66.55 287.16 70.43 291.29 71.32 292.52 71.71 292.52 71.71 292.13 71.46 291.91 71.29 291.7 70.96 291.08 71.32 291.08 72.96 294.18 73.61 296.23 72.98 297.16 71.53 297.78 71.06 299.3 71.32 302.94 71.79 302.69 71.88 302.27 71.86 301.83 72.04 301.53 72.65 301.33 72.87 301.48 73.1 301.75 74.48 302.08 75.24 302.58 76.74 304.05 77.79 305.47 79.97 310.15 79.72 310.74 79.63 311.37 79.64 312.7 79.97 312.7 80.37 312.5 80.66 312.39 81.08 312.31 80.94 311.95 80.72 311.59 81.34 310.78 82.37 309.99 83.61 309.7 85.39 310.71 85.92 310.86 86.31 311.11 86.47 311.78 86.4 312.46 86.13 313.55 86.11 314.14 86.65 314.46 86.96 314.8 87.21 315.17 87.58 315.57 89.37 317.01 89.78 317.83 89.9 319 89.66 320.17 88.98 320.96 88.96 322.04 88.7 322.88 87.9 324.22 87.9 324.58 88.54 324.96 89.01 325.56 89.2 326.29 88.98 327.1 88.79 326.92 88.6 326.82 88.44 326.67 88.29 326.34 87.09 326.78 86.94 327.21 87.9 328.53 88.06 329.1 88.13 329.88 88.08 330.81 87.9 331.79 87.17 333.73 86.64 334.65 86.11 335.02 84.85 333.42 82.88 331.79 82.52 332.12 82.92 332.79 82.88 333.71 82.52 335.58 82.47 337.66 82.66 338.44 83.24 339.36 86.46 343.28 87.81 345.34 88.65 347.64 88.98 347.64 88.98 346.21 89.37 346.21 91.45 351.87 91.49 353.02 91.85 353.28 92.03 353.45 94.18 356.91 94.98 358.75 95.12 360.94 95 361.54 94.82 362.17 94.55 362.76 94.2 363.29 93.71 363.68 93.04 364.08 92.46 364.55 92.21 365.11 92.07 365.3 91.75 365.28 91.4 365.21 91.17 365.28 91.12 365.52 91.22 366.12 91.17 366.35 90.95 366.78 90.88 367.15 90.75 367.47 90.42 367.78 89.24 368.17 88.36 367.88 87.58 367.37 86.65 367.1 85.88 367.24 85.37 367.59 84.91 368.05 84.28 368.5 83.77 368.64 82.6 368.71 82.12 368.86 81.5 369.68 80.26 372.25 79.81 372.8 79.13 372.91 78.65 373.21 78.53 373.68 78.9 374.26 79.29 374.3 79.83 374.1 80.45 374.07 81.08 374.63 81.23 374.06 81.57 373.71 82.12 373.55 82.88 373.55 83.63 373.78 84.06 374.22 84.44 374.78 85.03 375.34 85.36 375.47 86.22 375.61 86.47 375.7 86.78 376.08 86.82 376.3 86.77 376.48 87.15 378.1 87.36 378.58 87.9 378.93 87.49 379.24 87.25 379.3 87.06 379.17 86.82 378.93 86.47 378.93 86.45 379.81 86.66 380.41 87.13 380.64 87.9 380.39 88.05 382.48 88.32 383.51 88.82 383.94 89.05 384.47 88.92 385.63 88.97 386.77 89.73 387.23 89.06 388.76 88.59 390.46 88.33 392.24 88.65 400.12 88.98 400.99 89.6 407.71 90.06 409.85 90.3 409.74 90.92 409.57 91.17 409.46 91.52 411.23 93.75 413.9 94.37 415.58 94.04 415.58 93.58 414.72 92.91 413.86 91.99 413.22 90.81 413.04 90.95 413.76 91 414.6 91.17 415.29 92.42 415.94 92.6 416.74 92.45 417.59 92.21 418.12 91.83 417.83 91.55 417.52 91.34 417.14 91.17 416.65 91.13 423.83 90.56 426.3 90.42 427.78 91.49 427.42 91.49 427.78 90.31 428.33 89.79 429.13 89.37 431.39 89.06 432.19 87.58 434.28 89.51 437.5 90.24 438.39 91.06 438.52 95.51 438.57 94.56 439.79 94 440.49 93.16 441.27 92.94 441.4 92.21 441.83 91.47 442.05 91.12 441.95 90.24 440.92 89.63 440.7 89 440.89 88.5 441.27 88.29 441.63 88.08 442.33 87.55 442.43 86.84 442.35 86.11 442.51 85.5 443.02 85.17 443.62 85.05 444.34 85.05 444.46 85.06 445.93 85.26 447.53 85.64 448.94 85.86 449.32 86.47 450.08 85.3 450.16 85.05 450.93 85.28 451.81 85.59 452.23 88.29 454.34 87.96 455.09 88.23 455.8 88.89 456.24 89.73 456.16 89.89 455.77 90.07 454.33 90.24 454.02 90.78 453.44 91.17 452.13 91.33 450.68 91.17 449.69 91.6 449.79 91.82 449.8 91.98 449.86 92.21 450.08 92.37 449.67 92.49 449.59 92.47 449.56 92.21 449.33 92.21 448.94 92.67 448.71 93.13 448.62 93.58 448.69 94.04 448.94 94.26 448.44 94.34 447.88 94.26 447.31 94.04 446.8 94.86 447.33 95.49 448 96.11 448.44 96.91 448.26 97.06 448.69 97.17 448.9 97.43 448.97 97.99 448.94 97.14 450.76 95.72 452.41 95.36 453 95.12 453.66 96.91 453.3 96.91 453.66 96.16 453.94 93.65 454.34 94.26 453.76 94.22 453.35 93.72 453.18 92.96 453.3 92.42 453.62 92.15 454.09 91.89 455.45 91.68 455.88 91.55 456.26 91.49 456.71 91.54 457.26 91.68 457.39 91.91 457.4 92.55 457.82 93.46 458.27 93.65 458.47 93.46 458.87 92.71 459.29 92.6 459.77 94.62 460.81 98.41 460.17 101.47 458.43 101.29 456.16 101.83 456.46 102.43 456.57 103.77 456.55 103.41 456.76 103.05 456.88 103.05 457.23 106.28 456.55 106.28 456.88 105.52 457.56 104.98 458.53 104.33 459.4 101.92 460.19 102.05 461.16 102.38 462.24 101.61 462.99 101.64 462.44 101.55 462.09 101.3 461.81 100.89 461.52 100.03 462.23 99.97 462.92 100.47 463.55 101.29 464.06 100.91 464.68 100.34 465.06 99.61 465.2 98.74 465.13 99.01 465.6 99.34 465.8 99.77 465.85 100.34 465.85 100.82 465.95 101.19 466.19 101.33 466.42 101.09 466.53 99.93 466.44 99.13 466.19 97.66 465.13 97.38 465.9 97.26 466.84 97.49 467.65 98.19 467.99 100.38 467.39 101.29 467.28 100.8 467.95 99.93 468.28 99.11 468.44 98.74 468.56 98.96 469.37 99.49 469.42 100.2 469.17 100.89 469.06 101.72 469.33 101.37 469.55 100.56 469.76 99.98 469.97 99.43 470.48 99.02 470.68 98.59 470.56 97.99 470.14 97.49 471.66 97.16 472.3 96.23 473.4 95.99 473.88 96.16 474.24 96.91 474.43 95.38 474.89 94.86 474.9 95.12 474.43 95.12 474.1 94.01 474.2 92.96 474.43 93.16 474.96 93.32 475.17 92.9 475.23 92.69 475.33 92.51 475.44 92.21 475.56 92.5 475.72 93.04 476.1 93.32 476.24 92.42 476.18 91.61 476.02 91.02 476.14 90.81 476.96 91.66 476.72 92.74 476.65 93.48 476.93 93.32 477.71 92.9 477.5 92.63 477.41 92.43 477.54 92.21 478.03 92.66 478.04 93.65 478.39 93.43 478.49 93.19 478.66 92.96 478.78 93.43 478.99 93.77 479.28 93.98 479.67 94.04 480.17 93.78 480.01 93.31 479.56 93.06 479.42 92.15 479.35 91.65 479.68 91.31 479.67 91.17 479.29 91.18 478.88 91.23 478.55 91.33 478.28 91.49 478.03 90.96 478 90.42 478.03 90.78 479.13 90.49 480.04 90 480.94 89.73 481.99 89.84 482.2 90.31 482.87 90.42 483.26 90.26 483.5 89.92 483.25 89.56 482.76 89.37 482.32 88.88 482.95 88.63 483.77 88.71 484.63 89.18 485.4 90.93 487.48 91.17 488.07 89.86 487.57 89.08 486.72 87.9 484.53 86.88 485.45 86.65 485.6 85.9 485.7 85.03 485.92 84.51 485.8 83.88 486.17 83.29 486.77 82.88 487.35 82.82 488.42 83.49 489.03 82.24 489.49 81.37 490.03 80.09 491.13 79.44 491.93 79.61 492.4 80.79 492.27 81.6 492 82.41 492.37 82.71 492.91 82.39 493.23 81.91 493.11 81.55 493.12 81.41 493.65 81.35 494.1 81.19 494.63 80.32 494.27 79.56 494.51 78.94 495.64 77.89 497.58 73.87 500.94 73.11 501.75 71.91 503.46 69.98 505.75 69.89 506.38 70.39 506.13 71.71 504.95 71.89 505.54 72.35 505.73 72.94 505.61 73.51 505.28 73.36 505.06 73.36 505.03 73.43 504.94 73.51 504.56 73.77 505.04 74.17 505.11 74.6 505.08 74.95 505.28 75.17 505.76 75.02 505.87 74.75 505.96 74.5 506.65 74.2 506.83 74.19 507.1 74.4 507.33 75.13 507.53 75.3 507.81 75.35 508.39 75.29 508.59 75.07 508.76 74.59 509.24 74.33 509.72 74.27 510.04 74.1 510.14 73.51 509.96 72.96 509.55 72.52 509.04 72.04 508.61 71.32 508.52 70.6 509.09 70.3 510.17 70.34 511.31 70.63 512.1 71.74 511.48 73.35 511.25 74.49 511.63 74.19 512.84 74.02 512.46 73.72 512.18 73.3 511.95 72.79 511.74 72.16 512.46 71.46 512.65 70.7 512.73 69.89 513.17 69.26 514.09 71.2 514.58 71.71 515.7 71.32 515.7 71.2 515.4 70.85 514.97 70.63 514.63 69.9 514.81 68.94 514.74 68.09 514.57 67.73 514.45 67.4 514.81 66.82 515.16 66.62 515.54 67.4 516.02 67.87 516.02 68.73 515.63 69.17 515.7 69.36 515.99 69.06 516.21 68.59 516.34 68.25 516.38 67.53 516.66 66.87 517.2 66.14 517.5 65.22 517.13 65.19 517.67 65.25 517.96 65.47 518.1 65.93 518.2 65.63 518.72 65.53 519.16 65.71 519.48 66.26 519.63 65.98 520.1 65.99 520.57 66.32 520.92 67.01 521.05 67.01 521.45 65.93 521.45 65.93 521.77 66.74 522 67.5 522.74 68.09 523.64 68.41 524.3 68.43 525.23 67.95 526.17 67.03 526.89 65.74 527.19 65.14 527.23 63.78 527.51 63.11 527.5 62.05 527.26 61.43 527.19 60.38 526.78 60.32 525.82 60.76 524.73 61.24 523.91 60.24 524.19 59.68 524.04 59.27 523.47 58.72 522.48 57.99 521.83 56.96 521.73 55.79 522.41 55.11 522.85 54.24 522.89 53.26 522.85 52 522.89 51.46 523.28 50.29 523.04 49.81 523.52 50.1 524.44 50.63 525.31 50.87 526.13 51.07 526.9 51.05 528.79 50.98 528.99 50.79 529.3 50.84 529.4 50.87 529.72 50.86 530.12 50.79 530.4 49.74 530.73 48.88 531.29 48.38 531.34 47.52 531.09 45.65 530.16 45.19 529.84 44.42 529 44.01 528.06 43.53 526.95 42.99 526.08 43.33 524.92 42.95 523.32 42.36 522.4 41.58 523.13 41.14 523.9 41.1 525.5 41.39 526.99 41.95 528.77 40.75 528.73 39.68 527.24 38.86 525.88 38.27 524.48 37.78 523.27 37.15 523.22 35.79 524.04 34.67 525.1 33.74 525.97 32.62 526.41 31.35 528.24 30.03 529.79 28.71 531.43 27.74 531.19 27.15 532.26 26.69 534.79 25.95 537.15 25.71 536.27 25.57 535.37 25.62 534.48 25.95 533.61 25.16 534.45 24.55 536.02 23.4 538.29 21.85 541.07 21.41 542.55 19.99 543.13 19.62 544.46 18.97 545.89 18.37 547.18 18.51 549.43 18.97 551.22 19.43 553.7 20.08 555.48 20.25 556.91 20.34 557.99 20.73 558.4 21.3 558.11 21.84 556.45 22.27 555.77 22.85 555.45 23.37 555.63 23.91 556.09 24.34 556.62 24.51 557.08 24.45 557.7 24.19 558.98 24.12 559.77 23.89 560.83 23.92 561.81 24.25 562.49 25.29 562.49 25.98 562.11 26.3 561.45 26.51 561.25 26.67 561.55 26.68 562.01 26.54 562.36 26.36 562.61 26.27 562.78 26.21 563.57 26.62 564.42 26.25 565.75 25.54 566.52 25.34 567.35 25.27 567.75 25.31 568.48 24.8 568.58 24.27 568.41 23.77 568.05 23.4 567.61 23.13 567.48 21.61 567.3 20.44 567.04 18.68 566.92 17.56 566.65 16.56 566.2 15.41 565.95 14.49 566.06 13.31 565.88 10.85 566.42 9.77 567.29 9.05 568.06 7.97 569.29 6.63 570.62 5.9 571.6 5.08 573.19 4.15 574.06 3.12 574.31 2.3 574.62 1.88 575.13 1.63 576 2.09 576.77 2.86 577.59 4.26 578.46 4.73 578.68 5.87 579.31 6.38 579.77 7.06 579.87 7.6 580.35 8.04 580.86 9.07 580.4 9.75 580.08 10.08 580.17 10.47 580.96 10.46 581.95 10.35 582.94 10.41 583.74 10.9 584.33 11.6 584.78 12.25 585.33 12.6 586.27 11.77 586.66 14.86 588.76 15.96 590.29 17.51 591.53 18.05 592.42 18.57 593.57 19.36 594.63 20.39 595.42 21.62 595.8 22.45 595.67 23.19 595.43 23.68 595.58 23.77 596.58 23.97 597.12 25.07 598.28 25.37 599.12 26.13 598.69 26.92 598.62 29.83 599.29 30.2 599.58 30.79 600.03 35.74 605.5 36.98 606.44 37.99 606.92 41.12 607.76 42.19 608.33 49.04 613.47 51.25 614.54 54.98 614.67 58.55 616.01 59.12 616.02 59.39 615.88 59.65 615.92 60.16 616.45 60.34 616.98 60.33 617.56 60.44 618.13 60.99 618.6 62.22 619.07 63.34 619.32 64.41 619.34 65.47 619.12 69.66 617.54 70.96 617.55 72.53 618.78 72.87 622.53 73.99 624.18 77.44 626.55 79.36 627.3 80.9 627.09 81.15 627.05 83.32 627.59 84.03 630.13 84.37 635.62 84.84 637.37 85.08 638.93 85.62 640.27 87.04 641.35 88.87 642.01 94.47 643.14 95.46 643.5 96.23 643.89 97.06 644.14 98.2 644.07 100.85 643.08 101.76 642.92 102.48 643.09 103.58 643.37 105.59 645.63 107.15 646.15 109.26 646.19 109.91 646.3 110.78 646.6 111.32 646.98 112.47 648.13 113.36 648.78 114.12 649.05 114.92 649.08 118.57 648.54 119.23 648.6 121.11 649.44 121.91 649.42 121.78 647.34 122.42 647.1 124.24 647.59 126.81 647.87 127.56 648.09 128.39 648.67 129.8 649.97 130.79 650.31 131.56 650.21 132.92 649.51 138.14 648.91 139.07 648.3 138.53 644.83 138.66 640.94 138.63 640.6 139.13 640.69 140.26 640.62 140.82 640.51 141.31 640.34 142.62 638.79 142.91 638.52 143.19 638.36 144.14 637.64 144.73 637.48 145.25 637.71 146.7 639.23 147.71 639.89 148.76 640.35 149.9 640.61 151.19 640.69 152.33 640.63 152.92 640.68 153.36 640.87 153.68 641.43 153.97 642.81 154.24 643.22 155.2 643.17 156.53 642.75 157.72 642.6 158.22 643.39 158.45 644.01 161.98 648.43 162.24 649.09 162.48 650.1 163.05 650.94 164.36 652.14 167.56 654.1 168 654.82 170.11 656.37 171.59 657.19 172.45 657.53 173.47 657.78 174.64 657.88 175.85 657.76 178.12 657.25 179.11 657.13 180.16 657.47 180.99 658.22 181.66 658.96 182.2 659.3 183.14 659.61 185.61 661.8 188.67 663.67 189.93 664.11 190.96 664.84 193.9 665.4 197.24 666.61 198.21 667.19 199.01 666.91 199.84 666.27 200.49 665.5 200.75 664.83 200.93 663.82 201.44 663.29 202.25 663.11 203.3 663.23 205.67 663.87 206.77 664.42 207.77 665.2 209.84 668.03 210.45 668.61 210.9 668.77 211.82 668.79 212.31 668.93 212.64 669.18 214.79 671.5 215.49 672.04 216.62 672.54 218.41 672.92 219.29 673.23 219.81 673.19 220.4 672.73 221.71 670.65 222.34 670.5 223.44 671.47 224.19 672.51 225.99 676.13 224.54 677.22 224.13 677.92 225.06 678.24 225.6 678.3 226.63 678.57 227.94 678.69 228.27 678.85 228.49 679.07 228.86 679.34 229.12 679.6 229.29 679.86 229.6 680.06 230.33 680.09 230.59 679.96 230.93 679.71 231.36 679.46 231.93 679.34 232.43 679.74 233.92 682.23 236.13 684.55 237.5 685.62 240.7 687.53 241.32 688.07 242.01 688.84 242.47 689.57 242.75 689.69 243.47 689.72 243.73 689.94 243.84 690.47 243.9 691.04 243.9 691.07 244.01 691.54 246.52 696.92 246.39 697.29 245.72 697.86 245.47 698.31 245.45 699.31 245.82 700.07 247.6 702.03 247.96 702.27 248.47 702.42 249.38 702.45 249.78 702.63 249.37 703.46 249.68 704.07 250.22 704.62 250.5 705.28 250.19 705.86 249.46 705.86 248.61 705.71 247.96 705.83 247.6 706.45 247.92 706.92 249.23 707.8 249.75 708.49 250.5 710.86 251.68 712.39 253.08 713.15 256.21 713.72 259.42 714.93 260.85 714.89 261.66 713.36 262.27 713.91 263.5 717.55 263.75 718 264.18 718.35 264.83 718.62 265.12 718.54 265.4 718.27 265.97 718 266.16 717.77 266.35 717.44 266.61 717.3 267.05 717.67 267.11 718.1 266.62 719.02 266.69 719.45 267.41 719.83 269.05 719.47 269.92 719.78 270.23 720.27 271.03 722.34 271.98 723.81 272.49 724.36 273.22 724.83 274.62 725.33 275.47 725.5 276.09 725.52 276.97 725.03 277.82 723.71 278.61 723.41 279.05 724.35 279.78 725.15 280.78 725.7 282 725.91 282.58 726.08 283.59 726.81 284.82 727.17 285.09 727.63 285.23 728.21 285.61 729.02 285.69 729.59 285.79 729.83 286 729.88 286.7 729.78 286.9 729.83 287.06 730.21 287.16 730.65 287.22 731.78 287.33 732.14 287.57 732.56 287.87 732.9 288.69 733.28 288.44 733.83 287.62 734.83 288.1 735.62 290.05 736.53 290.64 737.44 291.75 738.25 292.15 738.81 292.25 739.33 292.24 739.88 292.32 740.57 292.87 742.75 292.82 743.75 291.54 744.5 291.09 745.29 290.49 747.02 290.37 749.04 291.43 750.34 294.83 752.41 294.9 752.6 295.08 753.3 295.15 753.48 295.4 753.52 295.98 753.45 296.73 753.53 297.31 753.51 297.94 753.59 298.6 754.01 299.86 755.15 300.4 755.23 300.8 754.65 301.65 753.83 302.46 753.73 304.22 754.19 304.56 754.01 304.77 752.63 305.31 752.63 306.71 754.19 307.22 754.56 307.71 754.77 308.15 755.05 308.5 755.62 308.12 757.56 308.4 758.29 309.64 759.74 309.94 760.62 309.82 761.1 309.3 762.41 309.22 763.14 309.43 763.97 309.78 764.65 310.69 766 311.05 766.97 311.34 768.17 311.75 769.27 312.46 769.93 310.91 772.46 310.41 773.6 308.5 775.31 308.03 775.88 307.86 776.22 307.79 776.74 307.9 777.26 308.4 778.05 308.5 778.36 308.67 778.62 309.39 779.17 309.55 779.45 309.81 781.01 309.94 781.41 310.81 781.99 313.1 782.56 313.57 783.02 313.89 784.13 314.58 783.51 315.2 782.33 315.33 781.77 318.95 783.75 319.12 784.04 319.89 784.71 320.78 787.12 321.28 788 321.7 788.33 322.18 788.32 324.41 787.88 325.14 787.62 325.76 787.02 327.27 786.49 328.57 785.84 329.45 786.14 330.83 787.12 330.97 786.48 331.23 785.99 331.65 785.62 332.3 785.31 332.56 785.68 332.78 786.14 332.93 786.67 333.11 788.04 333.42 788.16 334.29 787.87 334.96 787.25 336.35 784.4 337 783.56 337.97 783.7 338.89 784.2 341.28 786.12 342.27 786.43 347.67 787.27 348.14 787.68 348.4 788.31 349.1 788.94 350.03 789.44 351.01 789.66 352.19 789.56 354.29 789.01 355.51 788.88 355.96 788.74 356.11 788.37 356.07 787.3 356.34 787.08 357.69 786.81 358.22 786.77 361.61 787.54 362.4 787.3 364.72 784.66 366.19 783.39 367.65 782.82 369.37 782.8 372.66 783.26 373.59 783.04 374.24 782.39 374.48 781.23 374.86 780.83 377.35 778.91 379.25 776.03 379.5 775.49 380.03 775.45 383.09 773.53 384.24 773.01 384.64 773.29 384.56 775.13 385.01 776.02 386.03 775.86 387.79 774.95 389.04 775.18 390.07 775.79 391.05 776.54 392.14 777.13 395.17 777.75 395.76 778.2 396.01 779.18 396.08 781.36 396.45 782.16 397.28 782.56 397.69 781.95 398.21 779.98 398.94 779.24 399.47 779.43 400.39 781.05 401.64 782.63 401.83 783.17 401.69 783.61 400.96 784.26 400.75 784.66 401.35 785.75 403.13 785.38 406.89 783.56 407.3 784.27 408.28 784.04 409.38 783.47 410.16 783.17 410.73 783.3 411.36 783.76 411.92 783.95 412.48 783.83 413.47 783.06 414.96 782.31 415.97 779.83 417.17 779.27 418.63 779.02 419.32 779.03 420.64 779.82 421.3 779.96 421.92 779.89 422.4 779.63 421.91 778.3 421.8 777.11 422.35 776.38 423.86 776.41 426.09 777.35 427.41 777.61 428.5 777.13 430.1 778.09 432.82 780.98 434.64 782.16 436.57 782.85 437.55 783.08 438.91 783.25 439.18 783.51 439.31 783.92 439.31 785.44 439.51 785.54 441.16 786.91 441.49 787.48 441.56 788.01 441.56 788.73 441.65 789.38 442.01 789.66 444.18 789.66 444.59 789.44 444.63 788.94 444.59 788.35 444.72 787.87 445.64 787.29 446.33 787.72 446.98 788.47 447.79 788.88 448.67 788.99 449.67 789.3 450.59 789.75 451.25 790.31 451.56 790.87 451.74 791.41 452.04 791.85 452.65 792.15 453.2 792.11 454.44 791.58 455.02 791.44 456.15 791.43 457.27 791.55 457.93 792.06 457.68 793.19 457.42 793.36 456.53 793.69 456.28 793.94 456.31 794.38 456.56 794.86 456.89 795.25 457.16 795.4 458.45 795.06 459.5 794.42 460.51 794.08 461.66 794.65 462.32 795.62 463.06 797.84 463.65 798.77 464.63 799.14 465.5 798.74 466.4 798.48 467.44 799.29 467.6 799.82 467.58 800.35 467.67 800.81 468.16 801.08 468.61 800.96 468.89 800.53 469.13 799.97 469.43 799.49 470.51 798.78 471.08 799.16 471.75 801.47 472.08 802.24 472.52 802.87 473.12 803.34 473.42 803.44 473.41 803.48 472.23 805.34 468.1 811.74 463.98 818.14 459.85 824.54 455.73 830.95 451.6 837.35 447.48 843.76 443.35 850.16 439.23 856.56 437.46 859.31 439.75 859.56 446.88 863.28 447.45 863.66 450.25 864.36 451.65 864.37 453.01 863.79 455.08 861.92 456.21 861.23 457.69 861.08 459.71 861.78 461.68 863.21 463.4 865.01 464.66 866.79 465.31 868.63 465.61 870.51 466.16 872.24 467.57 873.63 472.89 876.33 474.47 877.61 475.53 878.84 476.45 880.19 477.91 883.11 477.97 882.99 478.03 882.87 478.09 882.75 478.15 882.64 478.2 882.53 478.26 882.41 478.32 882.29 478.38 882.18 478.43 882.07 478.49 881.95 478.55 881.83 478.61 881.71 478.67 881.6 478.73 881.49 478.79 881.37 478.85 881.25 480.39 872.82 481.93 864.37 483.48 855.94 485.02 847.5 486.56 839.06 488.1 830.63 489.65 822.2 491.19 813.77 492.74 805.34 494.28 796.91 495.83 788.48 497.37 780.06 498.91 771.63 500.45 763.21 502 754.78 503.54 746.36 504.13 743.15 504.89 740.53 504.88 739.46 505.84 735.89 505.8 733.5 506.66 728.68 506.52 726.34 506.51 726.3 507.65 723.38 507.07 721.82 505.09 718.65 505.08 718.04 505.42 716.96 505.53 716.38 505.26 714.4 505.37 714.27 505.16 713.88 505 713.67 504.73 713.55 504.2 713.47 503.88 713.21 502.73 711.55 502.23 711.24 501.09 710.75 500.65 710.39 500.3 709.69 500.33 709.16 500.46 708.67 500.4 708.06 500.09 707.5 499.72 707.21 499.34 707.01 498.99 706.7 498.51 705.96 498.39 705.43 498.54 704.09 498.12 703.35 496.14 701.14 495.61 699.91 495.95 698.96 497.59 696.5 497.94 695.27 497.79 694.63 497.49 694.2 497.14 693.8 496.87 693.27 496.76 692.76 496.73 691.21 496.49 690.04 496.07 689 495.42 688.07 494.5 687.3 493.61 686.82 489.4 685.26 488.61 684.62 487.04 682.92 486.5 682.54 485.28 681.98 484.76 681.61 484.36 681.09 483.87 679.92 483.53 679.43 482.63 678.86 480.54 678.4 479.56 678.02 479 677.55 477.82 675.82 475.15 673.38 473.11 671.05 472.49 669.96 472.19 668.12 472.26 665.5 472.29 664.16 472.39 660.65 472.53 655.69 472.69 650 472.84 644.31 472.98 639.35 473.08 635.84 473.12 634.51 473.22 630.87 474 631.58 474.98 631.3 476.11 630.78 477.31 630.75 478.55 631 479.55 630.83 480.57 630.54 484.17 630.32 486.31 629.89 488.29 629.17 490.12 628.21 492.13 626.66 492.93 626.59 494.41 627.25 496.1 627.6 496.86 626.73 497.42 625.59 498.46 625.13 499.44 625.02 501.13 623.93 502.17 623.48 503.52 623.31 504.58 623.56 505.54 624.2 509.26 627.93 509.59 628.11 510.66 627.63 511.82 627.31 512.77 627.3 513.26 627.87 513.04 629.31 513.99 629.25 515.91 629.53 516.76 629.48 517.14 629.23 517.7 628.44 518.11 628.19 518.66 628.18 519.65 628.54 520.12 628.61 521.1 628.29 521.43 627.63 521.23 626.69 520.66 625.52 520.27 625.17 519.13 624.64 518.71 624.24 518.55 623.51 518.93 623.06 519.48 622.65 519.84 622.1 519.84 620.9 519.32 618.57 519.44 617.48 519.76 617.29 520.26 617.21 520.65 616.97 520.65 616.26 520.3 615.82 519.68 615.46 518.46 614.99 517.62 614.18 517.91 612.3 516.76 611.59 516.61 611.06 516.56 610.44 516.41 609.96 516.03 609.58 515.13 608.99 514.24 607.88 513.47 607.35 510.84 606 509.99 605.85 509.16 606.06 506.67 607.86 506.13 607.76 505.14 607.18 504.87 606.94 504.71 606.7 504.48 606.47 504.01 606.25 503.51 606.18 501.83 606.42 500.11 606.45 499.56 606.38 497.28 605.6 496.06 605.55 491 606.29 490.45 606.17 490.37 605.02 489.91 604.74 489.23 604.62 488.56 604.59 487.24 604.95 485.04 606.36 483.84 606.25 483.86 603.12 483.88 599.53 483.9 595.95 483.92 592.35 483.94 588.76 483.96 585.17 483.98 581.58 484 577.99 484.02 574.4 483.63 572.38 484.42 572.38 486.19 572.39 487.16 572.11 489.41 570.94 490.31 570.74 491.24 570.76 492.37 570.92 494.53 570.74 498.14 569.11 500.16 568.98 503.99 569.78 507.97 571.46 510.13 571.72 512.64 571.72 519.28 571.72 528.66 571.71 539.42 571.7 550.17 571.69 559.55 571.68 566.19 571.67 568.7 571.67 572.66 571.66 571.76 571.23 571.32 570.9 571.17 570.56 571.22 569.9 571.07 569.44 570.65 569.19 568.68 569.1 568.57 568.16 568.68 567.01 568.19 566.39 566.86 566.23 566.51 566.01 567.53 564.51 570.69 556.69 571.14 556.32 571.39 556.67 571.4 557.71 571.51 558.1 571.94 558.5 572.32 558.68 573.41 558.9 574.62 559.39 575.41 560.11 575.93 561.06 577.08 564.42 578.17 566.69 579.58 568.73 581.34 570.16 583.1 570.68 584.99 570.62 586.87 570.18 588.58 569.56 590.67 568.39 592.27 566.89 598.62 558.49 602.66 554.23 604.68 553.27 606.11 552.05 607.01 551.48 608.84 551.25 609.33 551.01 610.22 550.09 610.71 549.8 611.51 549.88 613.76 550.68 614.6 551.09 615.93 552.39 616.99 554.32 618.66 558.41 619.92 560.62 625.65 568.17 627.68 572.26 629.48 577.76 629.97 581.08 628.68 596.12 628.87 598.84 629.31 600.16 630.41 600.33 634.99 599.07 638.39 598.13 640.41 597.73 639.32 595.49"/>
</svg>